<?xml version="1.0" standalone="no"?>
<!DOCTYPE svg PUBLIC "-//W3C//DTD SVG 20010904//EN"
 "http://www.w3.org/TR/2001/REC-SVG-20010904/DTD/svg10.dtd">
<svg version="1.0" xmlns="http://www.w3.org/2000/svg"
 width="1200.000000pt" height="627.000000pt" viewBox="0 0 1200.000000 627.000000"
 preserveAspectRatio="xMidYMid meet">

<g transform="translate(0.000000,627.000000) scale(0.100000,-0.100000)"
fill="#000000" stroke="none">
<path d="M9691 4389 c-76 -23 -111 -67 -111 -141 0 -79 34 -113 154 -159 44
-16 57 -26 62 -46 17 -65 -85 -69 -157 -7 -13 12 -19 8 -48 -29 l-32 -42 28
-23 c71 -56 201 -69 261 -25 43 32 72 82 72 125 0 76 -33 111 -153 158 -63 25
-81 44 -66 72 13 25 66 23 109 -3 l34 -21 24 28 c47 58 47 60 -11 88 -62 30
-119 39 -166 25z"/>
<path d="M9984 4377 c-2 -7 -3 -118 -2 -247 l3 -235 168 -3 167 -2 0 55 0 55
-110 0 -110 0 0 45 0 45 80 0 80 0 0 50 0 50 -80 0 -80 0 0 50 0 50 105 0 105
0 0 50 0 50 -160 0 c-121 0 -162 -3 -166 -13z"/>
<path d="M10392 4143 l3 -248 55 0 55 0 5 144 5 144 91 -144 92 -144 58 0 59
0 3 248 2 247 -60 0 -59 0 -3 -150 -3 -150 -94 150 -93 150 -59 0 -59 0 2
-247z"/>
<path d="M11039 4363 c-41 -106 -169 -458 -169 -465 0 -5 26 -8 58 -6 l57 3
15 43 15 43 89 -3 89 -3 15 -42 14 -43 59 0 c32 0 59 1 59 3 0 2 -40 113 -90
247 -49 134 -90 245 -90 247 0 2 -25 3 -55 3 -51 0 -56 -2 -66 -27z m91 -190
c12 -38 24 -74 26 -80 4 -10 -9 -13 -50 -13 -31 0 -56 4 -56 8 0 7 26 89 45
140 8 22 14 13 35 -55z"/>
<path d="M11392 4143 l3 -248 55 0 55 0 3 248 2 247 -60 0 -60 0 2 -247z"/>
<path d="M8925 4209 c-141 -12 -346 -46 -484 -79 -178 -44 -356 -105 -689
-239 -623 -250 -883 -311 -1419 -337 l-143 -7 0 -163 0 -164 93 0 c51 0 154 5
228 10 472 37 765 111 1299 327 601 243 851 307 1288 329 l132 7 0 163 0 164
-102 -1 c-57 -1 -148 -6 -203 -10z"/>
<path d="M3088 4010 c-75 -22 -118 -84 -118 -168 0 -147 192 -224 311 -125 72
61 79 173 16 242 -47 51 -137 73 -209 51z"/>
<path d="M1705 3996 c-48 -21 -93 -79 -100 -130 -17 -112 64 -199 185 -199
108 0 181 69 182 172 0 74 -29 119 -99 155 -38 19 -126 20 -168 2z"/>
<path d="M500 3265 l0 -715 165 0 165 0 0 255 0 255 265 0 265 0 0 150 0 150
-265 0 -265 0 0 160 0 160 320 0 320 0 0 150 0 150 -485 0 -485 0 0 -715z"/>
<path d="M9654 3701 c-54 -33 -74 -67 -74 -129 0 -51 3 -58 38 -90 20 -19 66
-46 101 -61 35 -14 69 -34 75 -43 33 -54 -73 -74 -135 -26 l-33 25 -33 -41
-33 -41 30 -26 c91 -77 263 -60 311 31 23 42 24 101 3 141 -12 24 -37 41 -109
74 -95 44 -109 57 -93 88 12 24 65 22 107 -4 l34 -21 33 39 c37 44 34 52 -30
82 -56 28 -149 28 -192 2z"/>
<path d="M9985 3708 c-3 -8 -4 -119 -3 -248 l3 -235 168 -3 167 -2 0 50 0 50
-110 0 -110 0 0 50 0 50 80 0 80 0 0 50 0 50 -80 0 -80 0 0 45 0 44 103 3 102
3 0 50 0 50 -158 3 c-122 2 -159 0 -162 -10z"/>
<path d="M10452 3700 c-69 -42 -92 -132 -52 -198 16 -25 42 -43 106 -73 46
-21 87 -46 91 -55 19 -51 -75 -68 -137 -24 l-33 24 -33 -39 c-39 -47 -35 -56
41 -91 98 -46 221 -23 265 49 25 41 26 112 2 152 -20 32 -28 37 -135 84 -63
28 -68 33 -65 58 2 24 8 29 36 31 21 2 47 -5 70 -18 l37 -22 32 38 c25 31 29
41 20 53 -41 50 -184 68 -245 31z"/>
<path d="M10790 3470 l0 -251 58 3 57 3 0 245 0 245 -57 3 -58 3 0 -251z"/>
<path d="M2678 3545 c-69 -19 -135 -61 -168 -107 l-30 -41 0 71 0 72 -155 0
-155 0 0 -495 0 -495 154 0 155 0 3 268 c3 251 4 269 24 307 30 55 70 94 124
119 36 16 65 21 143 21 l98 0 -3 145 -3 145 -70 2 c-38 1 -91 -4 -117 -12z"/>
<path d="M3785 3532 c-123 -43 -205 -118 -261 -237 -98 -211 -60 -488 86 -634
162 -162 442 -175 578 -27 l39 43 34 -46 c19 -25 54 -55 80 -68 52 -27 156
-39 243 -29 l56 7 0 134 0 134 -41 -1 c-29 0 -47 6 -63 21 -21 21 -21 29 -24
366 l-3 345 -154 0 -155 0 0 -56 0 -56 -42 36 c-73 63 -121 81 -228 84 -71 2
-108 -2 -145 -16z m304 -272 c115 -58 157 -240 84 -358 -74 -120 -240 -142
-336 -44 -50 52 -67 98 -67 184 0 86 20 137 73 186 67 64 160 76 246 32z"/>
<path d="M5275 3537 c-57 -19 -84 -34 -137 -79 l-48 -39 0 60 0 61 -155 0
-155 0 0 -495 0 -495 155 0 155 0 0 273 c0 309 7 356 64 413 59 59 152 69 211
22 52 -40 59 -74 66 -308 4 -136 11 -229 20 -253 20 -59 81 -123 136 -141 46
-16 214 -23 247 -10 13 5 16 27 16 135 l0 129 -30 0 c-17 0 -39 9 -50 20 -22
22 -24 40 -21 200 5 214 -29 357 -100 429 -66 65 -118 85 -234 88 -63 2 -115
-2 -140 -10z"/>
<path d="M8920 3539 c-241 -21 -490 -72 -715 -145 -60 -20 -261 -96 -445 -169
-338 -134 -506 -193 -680 -239 -198 -52 -469 -90 -737 -102 l-153 -7 0 -165 0
-165 179 7 c387 14 707 71 1051 186 80 27 273 100 430 163 359 144 483 187
662 231 184 45 310 63 536 78 l182 12 0 163 0 163 -107 -1 c-60 -1 -151 -6
-203 -10z"/>
<path d="M1630 3157 c0 -421 5 -470 59 -537 58 -73 165 -103 305 -86 l56 7 0
135 0 134 -33 0 c-22 0 -41 8 -53 21 -18 20 -19 43 -22 365 l-3 344 -154 0
-155 0 0 -383z"/>
<path d="M3000 3025 c0 -554 -1 -563 -51 -599 -16 -11 -44 -16 -86 -16 l-63 0
0 -135 0 -134 36 -7 c20 -4 81 -4 135 -1 161 9 250 61 306 181 l28 61 3 583 3
582 -156 0 -155 0 0 -515z"/>
<path d="M9590 2795 l0 -245 60 0 60 0 0 245 0 245 -60 0 -60 0 0 -245z"/>
<path d="M9800 2795 l0 -245 170 0 170 0 0 50 0 49 -112 3 -113 3 0 45 0 45
83 3 83 3 -3 47 -3 47 -82 3 -83 3 0 44 0 45 105 0 105 0 0 50 0 50 -160 0
-160 0 0 -245z"/>
<path d="M10210 2795 l0 -245 160 0 160 0 0 50 0 50 -105 0 -105 0 0 195 0
195 -55 0 -55 0 0 -245z"/>
<path d="M8910 2869 c-346 -28 -636 -107 -1129 -306 -632 -254 -920 -324
-1443 -349 l-148 -6 0 -166 0 -165 163 6 c405 16 722 72 1066 187 81 27 287
106 460 175 538 216 804 282 1204 301 l147 7 0 164 0 163 -107 -1 c-60 -1
-155 -6 -213 -10z"/>
<path d="M9750 2371 c-108 -35 -180 -133 -180 -246 0 -52 29 -133 61 -169 74
-84 216 -108 317 -52 79 44 82 51 39 94 -34 34 -39 36 -60 23 -53 -34 -80 -43
-114 -38 -101 17 -150 116 -104 210 38 78 132 100 203 47 32 -23 47 -19 88 25
l25 27 -30 24 c-16 13 -46 32 -65 41 -39 19 -141 27 -180 14z"/>
<path d="M10090 2125 l0 -245 55 0 55 0 0 245 0 245 -55 0 -55 0 0 -245z"/>
<path d="M10300 2126 l0 -246 55 0 55 0 0 80 c0 74 2 80 20 80 15 0 35 -23 72
-80 l51 -80 68 0 68 0 -50 76 c-64 97 -65 98 -35 118 57 37 78 152 39 218 -38
64 -60 73 -209 76 l-134 4 0 -246z m229 118 c27 -34 26 -50 -4 -79 -18 -19
-35 -25 -70 -25 l-45 0 0 65 0 65 49 0 c42 0 53 -4 70 -26z"/>
<path d="M10890 2197 c0 -140 -3 -177 -16 -195 -18 -26 -45 -28 -80 -6 -13 9
-26 15 -27 13 -1 -2 -15 -19 -31 -36 -28 -32 -29 -33 -11 -52 48 -54 164 -64
221 -19 48 38 54 70 54 278 l0 190 -55 0 -55 0 0 -173z"/>
</g>
</svg>
